<?xml version="1.0" encoding="utf-8"?>
<svg viewBox="0 -181.5 512 512" width="800px" height="800px" xmlns="http://www.w3.org/2000/svg">
  <g transform="matrix(1, 0, 0, 1, 7.105427357601002e-15, 0)">
    <path d="M 21.956 112.571 L 21.956 59.79 L 87.856 59.79 L 87.856 56.703 L 21.956 56.703 L 21.956 8.552 L 92.023 8.552 L 92.023 5.465 L 18.87 5.465 L 18.87 115.658 L 92.641 115.658 L 92.641 112.571 L 21.956 112.571 Z M 152.058 36.331 L 124.741 72.291 L 98.042 36.331 L 94.029 36.331 L 122.889 74.606 L 91.251 115.658 L 94.955 115.658 L 124.741 76.92 L 154.681 115.658 L 158.539 115.658 L 126.747 74.606 L 155.762 36.331 L 152.058 36.331 Z M 167.8 142.82 L 167.8 93.434 L 168.108 93.434 C 169.96 100.636 173.613 106.424 179.066 110.797 C 184.519 115.169 191.463 117.355 199.9 117.355 C 205.353 117.355 210.189 116.249 214.408 114.037 C 218.626 111.825 222.15 108.816 224.98 105.009 C 227.809 101.202 229.969 96.778 231.461 91.736 C 232.953 86.695 233.699 81.396 233.699 75.84 C 233.699 69.873 232.928 64.368 231.384 59.327 C 229.841 54.285 227.603 49.912 224.67 46.208 C 221.738 42.504 218.189 39.623 214.022 37.566 C 209.855 35.508 205.148 34.479 199.9 34.479 C 195.888 34.479 192.158 35.071 188.712 36.254 C 185.265 37.438 182.204 39.109 179.529 41.27 C 176.854 43.43 174.539 45.977 172.584 48.909 C 170.629 51.842 169.137 55.057 168.108 58.555 L 167.8 58.555 L 167.8 36.331 L 164.713 36.331 L 164.713 142.82 L 167.8 142.82 Z M 199.9 114.423 C 190.229 114.423 182.462 111.105 176.597 104.468 C 170.732 97.832 167.8 88.289 167.8 75.84 C 167.8 70.695 168.52 65.809 169.96 61.178 C 171.401 56.549 173.484 52.485 176.21 48.986 C 178.937 45.488 182.306 42.71 186.319 40.653 C 190.332 38.595 194.859 37.566 199.9 37.566 C 205.045 37.566 209.546 38.595 213.405 40.653 C 217.263 42.71 220.452 45.514 222.973 49.064 C 225.494 52.614 227.397 56.677 228.683 61.255 C 229.969 65.834 230.612 70.695 230.612 75.84 C 230.612 80.47 230.021 85.074 228.838 89.653 C 227.655 94.231 225.828 98.347 223.359 102 C 220.889 105.652 217.726 108.635 213.867 110.951 C 210.009 113.265 205.353 114.423 199.9 114.423 Z M 250.676 115.658 L 250.676 70.747 C 250.676 66.426 251.293 62.208 252.527 58.092 C 253.762 53.977 255.665 50.35 258.238 47.211 C 260.81 44.073 264.077 41.604 268.038 39.804 C 271.999 38.004 276.706 37.257 282.159 37.566 L 282.159 34.479 C 277.426 34.377 273.286 34.891 269.736 36.023 C 266.186 37.155 263.125 38.697 260.553 40.653 C 257.981 42.608 255.923 44.897 254.379 47.521 C 252.836 50.144 251.704 52.947 250.984 55.931 L 250.676 55.931 L 250.676 36.331 L 247.588 36.331 L 247.588 115.658 L 250.676 115.658 Z M 286.017 76.612 L 352.38 76.612 C 352.585 71.159 352.046 65.912 350.76 60.87 C 349.473 55.829 347.415 51.353 344.587 47.444 C 341.757 43.534 338.104 40.395 333.629 38.029 C 329.153 35.663 323.829 34.479 317.655 34.479 C 313.232 34.479 308.91 35.405 304.691 37.257 C 300.473 39.109 296.77 41.81 293.58 45.359 C 290.39 48.909 287.818 53.257 285.863 58.401 C 283.908 63.545 282.931 69.409 282.931 75.994 C 282.931 81.859 283.6 87.338 284.937 92.431 C 286.275 97.524 288.333 101.948 291.111 105.703 C 293.888 109.459 297.463 112.366 301.836 114.423 C 306.21 116.481 311.482 117.458 317.655 117.355 C 326.71 117.355 334.323 114.809 340.497 109.716 C 346.67 104.623 350.322 97.446 351.454 88.187 L 348.368 88.187 C 347.03 96.932 343.609 103.492 338.104 107.864 C 332.6 112.237 325.681 114.423 317.347 114.423 C 311.688 114.423 306.903 113.446 302.994 111.49 C 299.084 109.536 295.894 106.861 293.425 103.465 C 290.956 100.07 289.13 96.083 287.946 91.505 C 286.764 86.926 286.121 81.962 286.017 76.612 Z M 349.293 73.525 L 286.017 73.525 C 286.326 67.969 287.355 62.98 289.105 58.555 C 290.853 54.131 293.143 50.35 295.971 47.211 C 298.801 44.073 302.094 41.681 305.849 40.035 C 309.605 38.389 313.642 37.566 317.964 37.566 C 323.109 37.566 327.636 38.518 331.545 40.421 C 335.455 42.325 338.722 44.922 341.345 48.215 C 343.969 51.507 345.95 55.34 347.287 59.713 C 348.625 64.085 349.293 68.689 349.293 73.525 Z M 416.427 59.79 L 419.515 59.79 C 419.515 50.941 416.942 44.511 411.798 40.498 C 406.653 36.485 399.657 34.479 390.808 34.479 C 385.869 34.479 381.703 35.097 378.308 36.331 C 374.912 37.566 372.135 39.161 369.973 41.116 C 367.813 43.07 366.27 45.231 365.344 47.598 C 364.418 49.964 363.955 52.227 363.955 54.389 C 363.955 58.709 364.726 62.156 366.27 64.728 C 367.813 67.301 370.231 69.307 373.523 70.747 C 375.787 71.776 378.36 72.702 381.24 73.525 C 384.121 74.348 387.465 75.223 391.272 76.149 C 394.666 76.972 398.011 77.795 401.303 78.618 C 404.595 79.442 407.502 80.547 410.023 81.936 C 412.543 83.325 414.601 85.1 416.196 87.261 C 417.79 89.421 418.589 92.251 418.589 95.749 C 418.589 99.144 417.79 102.025 416.196 104.391 C 414.601 106.758 412.57 108.687 410.1 110.179 C 407.63 111.671 404.878 112.751 401.844 113.42 C 398.808 114.089 395.85 114.423 392.969 114.423 C 383.607 114.423 376.43 112.339 371.44 108.173 C 366.45 104.006 363.955 97.446 363.955 88.495 L 360.868 88.495 C 360.868 98.476 363.569 105.781 368.97 110.41 C 374.372 115.04 382.372 117.355 392.969 117.355 C 396.364 117.355 399.786 116.97 403.232 116.198 C 406.679 115.426 409.765 114.166 412.492 112.416 C 415.219 110.668 417.43 108.404 419.128 105.626 C 420.826 102.849 421.675 99.453 421.675 95.44 C 421.675 91.634 420.929 88.547 419.437 86.181 C 417.945 83.814 415.99 81.859 413.573 80.316 C 411.155 78.772 408.428 77.563 405.393 76.689 C 402.358 75.815 399.297 74.966 396.21 74.143 C 391.889 73.011 388.108 72.033 384.866 71.211 C 381.626 70.387 378.616 69.409 375.838 68.278 C 373.163 67.146 371.028 65.526 369.434 63.417 C 367.839 61.307 367.041 58.298 367.041 54.389 C 367.041 53.667 367.247 52.382 367.659 50.53 C 368.071 48.678 369.047 46.801 370.591 44.897 C 372.135 42.993 374.501 41.296 377.69 39.804 C 380.88 38.312 385.253 37.566 390.808 37.566 C 394.616 37.566 398.088 37.977 401.226 38.801 C 404.364 39.623 407.065 40.936 409.328 42.736 C 411.592 44.537 413.341 46.826 414.576 49.604 C 415.81 52.382 416.427 55.777 416.427 59.79 Z M 487.883 59.79 L 490.97 59.79 C 490.97 50.941 488.397 44.511 483.253 40.498 C 478.108 36.485 471.112 34.479 462.264 34.479 C 457.326 34.479 453.159 35.097 449.763 36.331 C 446.368 37.566 443.59 39.161 441.429 41.116 C 439.269 43.07 437.725 45.231 436.799 47.598 C 435.873 49.964 435.411 52.227 435.411 54.389 C 435.411 58.709 436.182 62.156 437.725 64.728 C 439.269 67.301 441.686 69.307 444.979 70.747 C 447.242 71.776 449.815 72.702 452.695 73.525 C 455.576 74.348 458.92 75.223 462.727 76.149 C 466.123 76.972 469.466 77.795 472.758 78.618 C 476.051 79.442 478.957 80.547 481.478 81.936 C 483.999 83.325 486.057 85.1 487.652 87.261 C 489.246 89.421 490.044 92.251 490.044 95.749 C 490.044 99.144 489.246 102.025 487.652 104.391 C 486.057 106.758 484.025 108.687 481.555 110.179 C 479.086 111.671 476.333 112.751 473.299 113.42 C 470.264 114.089 467.305 114.423 464.425 114.423 C 455.062 114.423 447.886 112.339 442.895 108.173 C 437.905 104.006 435.411 97.446 435.411 88.495 L 432.324 88.495 C 432.324 98.476 435.024 105.781 440.426 110.41 C 445.828 115.04 453.827 117.355 464.425 117.355 C 467.819 117.355 471.241 116.97 474.687 116.198 C 478.135 115.426 481.221 114.166 483.948 112.416 C 486.674 110.668 488.886 108.404 490.583 105.626 C 492.281 102.849 493.13 99.453 493.13 95.44 C 493.13 91.634 492.385 88.547 490.893 86.181 C 489.401 83.814 487.446 81.859 485.028 80.316 C 482.61 78.772 479.883 77.563 476.849 76.689 C 473.813 75.815 470.752 74.966 467.665 74.143 C 463.344 73.011 459.563 72.033 456.322 71.211 C 453.082 70.387 450.071 69.409 447.294 68.278 C 444.618 67.146 442.483 65.526 440.889 63.417 C 439.294 61.307 438.497 58.298 438.497 54.389 C 438.497 53.667 438.703 52.382 439.114 50.53 C 439.526 48.678 440.503 46.801 442.046 44.897 C 443.59 42.993 445.956 41.296 449.146 39.804 C 452.335 38.312 456.708 37.566 462.264 37.566 C 466.071 37.566 469.544 37.977 472.681 38.801 C 475.819 39.623 478.52 40.936 480.784 42.736 C 483.047 44.537 484.797 46.826 486.031 49.604 C 487.266 52.382 487.883 55.777 487.883 59.79 Z" style="fill: rgb(255, 255, 255); stroke-miterlimit: 5.5; stroke-width: 5px; stroke: rgb(255, 255, 255);"/>
  </g>
</svg>