<?xml version="1.0" encoding="utf-8"?>
<svg viewBox="0 0 64 64" xmlns="http://www.w3.org/2000/svg">
  <path fill-rule="evenodd" clip-rule="evenodd" d="M 16.195 0 L 47.805 0 C 56.749 0 64 7.251 64 16.195 L 64 47.805 C 64 56.749 56.749 64 47.805 64 L 16.195 64 C 7.251 64 0 56.749 0 47.805 L 0 16.195 C 0 7.251 7.251 0 16.195 0 Z" style="fill: rgb(0, 212, 171); fill-rule: evenodd;"/>
  <path fill-rule="evenodd" clip-rule="evenodd" d="M 30.279 28.492 C 33.56 22.177 37.634 14.336 48.649 14.336 C 49.065 14.335 49.476 14.417 49.86 14.576 C 50.244 14.734 50.593 14.967 50.887 15.261 C 51.181 15.555 51.414 15.904 51.573 16.288 C 51.731 16.672 51.813 17.084 51.813 17.499 C 51.813 17.915 51.731 18.326 51.573 18.711 C 51.414 19.095 51.181 19.443 50.887 19.737 C 50.593 20.031 50.244 20.264 49.86 20.423 C 49.476 20.582 49.065 20.663 48.649 20.663 C 41.958 20.663 39.362 24.735 35.884 31.439 L 33.739 35.479 L 33.73 35.496 C 30.451 41.813 26.377 49.665 15.354 49.665 C 14.515 49.665 13.711 49.331 13.117 48.738 C 12.524 48.145 12.191 47.34 12.191 46.501 C 12.191 45.662 12.524 44.857 13.117 44.264 C 13.711 43.671 14.515 43.337 15.354 43.337 C 22.045 43.337 24.641 39.265 28.122 32.562 L 30.264 28.522 L 30.279 28.492 Z" style="fill-rule: evenodd; fill: rgb(255, 255, 255);"/>
</svg>