<?xml version="1.0" encoding="utf-8"?>
<svg viewBox="0 0 32 32" width="800px" height="800px" xmlns="http://www.w3.org/2000/svg">
  <defs>
    <radialGradient id="gradient-0" cx="12.069" cy="9.514" r="12.833" gradientUnits="userSpaceOnUse" gradientTransform="matrix(1.139773, 0, 0, 1.139773, -2.212801, -2.213369)">
      <stop style="stop-color: rgb(52, 38, 122);" offset="0"/>
      <stop style="stop-color: rgb(8, 3, 33);" offset="1"/>
    </radialGradient>
  </defs>
  <path d="M 1.397 1.796 L 30.65 1.796 L 30.65 30.25 L 1.397 30.25 L 1.397 1.796 Z" style="paint-order: fill; fill-rule: nonzero; fill: url('#gradient-0');" transform="matrix(1, 0, 0, 1, 0, 8.881784197001252e-16)"/>
  <path d="M 1.397 1.796 L 30.65 1.796 L 30.65 30.25 L 1.397 30.25 L 1.397 1.796 Z M 0.067 31.581 L 31.98 31.581 L 31.98 0.465 L 0.067 0.465 L 0.067 31.581 Z M 21.582 13.23 C 20.531 13.23 20.173 13.763 20.173 14.201 C 20.173 14.68 20.411 15.013 21.822 15.744 C 23.91 16.755 24.557 17.725 24.557 19.148 C 24.557 21.276 22.935 22.419 20.741 22.419 C 19.8 22.455 18.863 22.258 18.015 21.849 C 17.921 21.81 17.909 21.743 17.909 21.637 L 17.909 19.679 C 17.909 19.546 17.975 19.507 18.068 19.574 C 18.866 20.086 19.793 20.358 20.741 20.357 C 21.792 20.357 22.23 19.919 22.23 19.32 C 22.23 18.841 21.925 18.417 20.581 17.725 C 18.693 16.821 17.909 15.901 17.909 14.374 C 17.909 12.659 19.251 11.236 21.579 11.236 C 22.389 11.201 23.198 11.328 23.959 11.609 C 24.048 11.666 24.099 11.768 24.092 11.874 L 24.092 13.698 C 24.092 13.804 24.026 13.871 23.892 13.831 C 23.19 13.426 22.39 13.219 21.579 13.233 L 21.582 13.23 Z M 10.145 14.812 C 10.451 14.839 10.69 14.839 11.223 14.839 C 12.779 14.839 14.241 14.294 14.241 12.18 C 14.241 10.49 13.19 9.64 11.423 9.64 C 10.89 9.64 10.385 9.666 10.145 9.68 L 10.145 14.812 Z M 7.779 7.746 C 7.779 7.652 7.964 7.586 8.072 7.586 C 8.923 7.546 10.186 7.52 11.502 7.52 C 15.186 7.52 16.622 9.541 16.622 12.121 C 16.622 15.499 14.174 16.949 11.17 16.949 C 10.666 16.949 10.492 16.922 10.134 16.922 L 10.134 22.028 C 10.134 22.135 10.093 22.188 9.974 22.188 L 7.94 22.188 C 7.833 22.188 7.78 22.149 7.78 22.028 L 7.78 7.751 L 7.779 7.746 Z" style="fill: rgb(49, 197, 240);" transform="matrix(1, 0, 0, 1, 0, 8.881784197001252e-16)"/>
</svg>