<?xml version="1.0" encoding="utf-8"?>
<svg viewBox="0 0 500 500" xmlns="http://www.w3.org/2000/svg">
  <ellipse style="fill: rgb(119, 188, 101); paint-order: fill; stroke: rgba(0, 0, 0, 0);" cx="250" cy="250.14" rx="248.6" ry="248.6" transform="matrix(0.9999999999999998, 0, 0, 0.9999999999999998, -7.105427357601002e-15, -7.105427357601002e-15)"/>
  <path d="M 188.401 274.189 Q 188.401 292.807 177.961 302.986 Q 167.521 313.165 149.425 313.165 Q 137.941 313.165 128.458 308.38 Q 118.975 303.595 111.841 295.243 L 122.803 278.539 Q 129.067 285.151 135.853 288.631 Q 142.639 292.111 148.729 292.111 Q 156.211 292.111 160.561 287.326 Q 164.911 282.541 164.911 273.667 L 164.911 209.983 L 122.977 209.983 L 122.977 190.321 L 188.401 190.321 Z M 271.222 188.929 Q 284.968 188.929 296.8 193.627 Q 308.632 198.325 317.419 206.851 Q 326.206 215.377 331.165 226.6 Q 336.124 237.823 336.124 251.047 Q 336.124 264.097 331.165 275.581 Q 326.206 287.065 317.419 295.591 Q 308.632 304.117 296.8 308.902 Q 284.968 313.687 271.222 313.687 Q 257.476 313.687 245.731 308.902 Q 233.986 304.117 225.112 295.591 Q 216.238 287.065 211.279 275.668 Q 206.32 264.271 206.32 251.047 Q 206.32 237.823 211.279 226.513 Q 216.238 215.203 225.112 206.764 Q 233.986 198.325 245.731 193.627 Q 257.476 188.929 271.222 188.929 Z M 271.57 208.591 Q 263.044 208.591 255.562 211.81 Q 248.08 215.029 242.338 220.858 Q 236.596 226.687 233.377 234.343 Q 230.158 241.999 230.158 251.047 Q 230.158 260.095 233.464 267.838 Q 236.77 275.581 242.512 281.497 Q 248.254 287.413 255.736 290.719 Q 263.218 294.025 271.57 294.025 Q 279.922 294.025 287.317 290.719 Q 294.712 287.413 300.28 281.497 Q 305.848 275.581 309.067 267.838 Q 312.286 260.095 312.286 251.047 Q 312.286 241.999 309.067 234.343 Q 305.848 226.687 300.28 220.858 Q 294.712 215.029 287.317 211.81 Q 279.922 208.591 271.57 208.591 Z M 356.652 190.321 L 379.968 190.321 L 379.968 312.121 L 356.652 312.121 Z" style="fill: rgb(255, 255, 255);"/>
</svg>