<?xml version="1.0" encoding="utf-8"?>
<svg fill="currentColor" xmlns="http://www.w3.org/2000/svg" viewBox="186.556 0.167 126.888 499.667"><path d="M 186.556 443.154 L 186.556 429.481 C 186.861 428.373 187.36 427.375 187.57 426.265 C 191.993 397.506 215.91 374.796 243.96 372.883 C 275.323 370.678 301.862 388.565 310.499 417.708 C 311.609 421.537 312.414 425.557 313.41 429.466 L 313.41 443.137 C 313.105 444.039 312.606 444.842 312.511 445.857 C 308.183 472.395 289.093 492.596 262.956 498.323 C 260.946 498.724 258.934 499.335 256.924 499.834 L 243.252 499.834 C 242.351 499.528 241.435 499.03 240.533 498.933 C 214.398 494.718 194.502 476.111 188.471 450.278 C 187.876 447.769 187.167 445.454 186.556 443.137 L 186.556 443.154 Z M 313.428 56.752 L 313.428 70.423 C 313.121 71.532 312.623 72.528 312.527 73.64 C 308.006 102.591 283.977 125.206 255.62 127.021 C 224.354 129.033 197.911 110.938 189.371 81.681 C 188.261 77.966 187.457 74.137 186.556 70.423 L 186.556 56.752 C 186.861 55.85 187.36 55.047 187.57 54.144 C 192.394 28.01 207.577 10.911 232.91 2.773 C 236.224 1.663 239.745 1.069 243.155 0.167 L 256.828 0.167 C 257.728 0.472 258.645 0.972 259.544 1.069 C 285.777 5.394 305.593 23.891 311.625 49.722 C 312.237 52.135 312.831 54.451 313.444 56.752 L 313.428 56.752 Z M 313.41 243.115 L 313.41 256.789 C 313.105 257.898 312.606 258.895 312.398 260.005 C 307.878 288.858 282.948 312.086 254.801 313.291 C 223.132 314.69 196.303 295.598 188.76 266.15 C 187.955 263.028 187.247 259.924 186.556 256.804 L 186.556 243.134 C 186.861 242.023 187.36 241.026 187.57 239.916 C 191.993 211.061 217.018 187.836 245.166 186.533 C 276.835 185.022 303.665 204.225 311.207 233.675 C 312.011 236.892 312.719 240.012 313.41 243.134 L 313.41 243.115 Z"/></svg>